ply
format ascii 1.0
comment Created by Blender 2.90.0 - www.blender.org
element vertex 48
property float x
property float y
property float z
property float nx
property float ny
property float nz
property float s
property float t
property uchar red
property uchar green
property uchar blue
property uchar alpha
element face 12
property list uchar uint vertex_indices
end_header
0.409908 0.177150 -0.383091 0.881879 0.148806 0.447377 0.512308 0.822566 255 255 255 255
0.251348 0.123243 -0.011613 0.881879 0.148806 0.447377 1.000197 0.822566 0 0 0 255
0.251348 0.000000 -0.011613 0.881879 0.148806 0.447377 1.000197 0.999111 0 0 0 255
0.460595 0.000000 -0.383091 0.881879 0.148806 0.447377 0.512308 0.999111 255 255 255 255
0.293392 0.266013 -0.383091 0.569233 0.743819 0.350297 0.514835 0.689919 255 255 255 255
0.248568 0.125674 -0.011613 0.569233 0.743819 0.350297 1.000197 0.751391 0 0 0 255
0.251348 0.123243 -0.011613 0.569233 0.743819 0.350297 1.000197 0.757901 0 0 0 255
0.409908 0.177150 -0.383091 0.569233 0.743819 0.350297 0.513742 0.810693 255 255 255 255
-0.000000 0.289070 -0.383091 0.039314 0.924086 0.380156 0.512308 0.497358 255 255 255 255
-0.000000 0.125674 -0.011613 0.039314 0.924086 0.380156 1.000197 0.497514 0 0 0 255
0.248568 0.125674 -0.011613 0.039314 0.924086 0.380156 1.000197 0.676594 0 0 0 255
0.293392 0.266013 -0.383091 0.039314 0.924086 0.380156 0.512308 0.676594 255 255 255 255
0.409908 -0.177150 -0.383091 0.881879 -0.148806 0.447377 0.000818 0.175156 255 255 255 255
0.460595 0.000000 -0.383091 0.881879 -0.148806 0.447377 0.000818 0.000324 255 255 255 255
0.251348 0.000000 -0.011613 0.881879 -0.148806 0.447377 0.506644 0.000324 0 0 0 255
0.251348 -0.123243 -0.011613 0.881879 -0.148806 0.447377 0.506644 0.175156 0 0 0 255
0.293392 -0.266013 -0.383091 0.569233 -0.743818 0.350297 0.000818 0.311608 255 255 255 255
0.409908 -0.177150 -0.383091 0.569233 -0.743818 0.350297 0.000818 0.190829 255 255 255 255
0.251348 -0.123243 -0.011613 0.569233 -0.743818 0.350297 0.506644 0.244354 0 0 0 255
0.248568 -0.125674 -0.011613 0.569233 -0.743818 0.350297 0.506644 0.250892 0 0 0 255
0.000000 -0.289070 -0.383091 0.039314 -0.924086 0.380156 0.000818 0.497358 255 255 255 255
0.293392 -0.266013 -0.383091 0.039314 -0.924086 0.380156 0.000818 0.318282 255 255 255 255
0.248568 -0.125674 -0.011613 0.039314 -0.924086 0.380156 0.506644 0.318282 0 0 0 255
0.000000 -0.125674 -0.011613 0.039314 -0.924086 0.380156 0.506644 0.497514 0 0 0 255
-0.409908 0.177150 -0.383091 -0.881879 0.148806 0.447377 0.512308 0.174131 255 255 255 255
-0.460595 -0.000000 -0.383091 -0.881879 0.148806 0.447377 0.512308 -0.000700 255 255 255 255
-0.251348 -0.000000 -0.011613 -0.881879 0.148806 0.447377 1.000197 -0.000700 0 0 0 255
-0.251348 0.123243 -0.011613 -0.881879 0.148806 0.447377 1.000197 0.174131 0 0 0 255
-0.293392 0.266013 -0.383091 -0.569233 0.743818 0.350297 0.513435 0.307300 255 255 255 255
-0.409908 0.177150 -0.383091 -0.569233 0.743818 0.350297 0.514444 0.186524 255 255 255 255
-0.251348 0.123243 -0.011613 -0.569233 0.743818 0.350297 1.000197 0.244184 0 0 0 255
-0.248568 0.125674 -0.011613 -0.569233 0.743818 0.350297 1.000197 0.250718 0 0 0 255
-0.000000 0.289070 -0.383091 -0.039314 0.924086 0.380156 0.512308 0.497358 255 255 255 255
-0.293392 0.266013 -0.383091 -0.039314 0.924086 0.380156 0.512308 0.318282 255 255 255 255
-0.248568 0.125674 -0.011613 -0.039314 0.924086 0.380156 1.000197 0.318282 0 0 0 255
-0.000000 0.125674 -0.011613 -0.039314 0.924086 0.380156 1.000197 0.497514 0 0 0 255
-0.409908 -0.177150 -0.383091 -0.881879 -0.148806 0.447377 0.000818 0.821015 255 255 255 255
-0.251348 -0.123243 -0.011613 -0.881879 -0.148806 0.447377 0.506644 0.821015 0 0 0 255
-0.251348 -0.000000 -0.011613 -0.881879 -0.148806 0.447377 0.506644 0.997560 0 0 0 255
-0.460595 -0.000000 -0.383091 -0.881879 -0.148806 0.447377 0.000818 0.997560 255 255 255 255
-0.293392 -0.266013 -0.383091 -0.569233 -0.743819 0.350297 0.000818 0.691059 255 255 255 255
-0.248568 -0.125674 -0.011613 -0.569233 -0.743819 0.350297 0.506644 0.751739 0 0 0 255
-0.251348 -0.123243 -0.011613 -0.569233 -0.743819 0.350297 0.506644 0.758246 0 0 0 255
-0.409908 -0.177150 -0.383091 -0.569233 -0.743819 0.350297 0.000818 0.811838 255 255 255 255
0.000000 -0.289070 -0.383091 -0.039314 -0.924086 0.380156 0.000818 0.497358 255 255 255 255
0.000000 -0.125674 -0.011613 -0.039314 -0.924086 0.380156 0.506644 0.497514 0 0 0 255
-0.248568 -0.125674 -0.011613 -0.039314 -0.924086 0.380156 0.506644 0.676594 0 0 0 255
-0.293392 -0.266013 -0.383091 -0.039314 -0.924086 0.380156 0.000818 0.676594 255 255 255 255
4 0 1 2 3
4 4 5 6 7
4 8 9 10 11
4 12 13 14 15
4 16 17 18 19
4 20 21 22 23
4 24 25 26 27
4 28 29 30 31
4 32 33 34 35
4 36 37 38 39
4 40 41 42 43
4 44 45 46 47
